ffmpeg started on 2016-12-07 at 09:43:35
Report written to "Output/x264/results/ffmpeg/sintelslow4500k.log"
Command line:
Tools/ffmpeg/ffmpeg -benchmark -y -i Input/y4m/sintel.y4m -c:v libx264 -preset slow -b:v 4500k -an Output/x264/encoded/sintelslow4500k.mkv
ffmpeg version N-82227-gdb23fde Copyright (c) 2000-2016 the FFmpeg developers
  built with gcc 5.4.0 (Ubuntu 5.4.0-6ubuntu1~16.04.2) 20160609
  configuration: --prefix=/home/jaroslav/ffmpeg_build --pkg-config-flags=--static --extra-cflags=-I/home/jaroslav/ffmpeg_build/include --extra-ldflags=-L/home/jaroslav/ffmpeg_build/lib --bindir=/home/jaroslav/bin --enable-gpl --enable-libass --enable-libfdk-aac --enable-libfreetype --enable-libmp3lame --enable-libopus --enable-libtheora --enable-libvorbis --enable-libvpx --enable-libx264 --enable-libx265 --enable-nvenc --enable-libmfx --enable-libxvid --enable-libgsm --enable-libopencore-amrnb --enable-version3 --enable-nonfree
  libavutil      55. 35.100 / 55. 35.100
  libavcodec     57. 66.101 / 57. 66.101
  libavformat    57. 57.100 / 57. 57.100
  libavdevice    57.  2.100 / 57.  2.100
  libavfilter     6. 66.100 /  6. 66.100
  libswscale      4.  3.100 /  4.  3.100
  libswresample   2.  4.100 /  2.  4.100
  libpostproc    54.  2.100 / 54.  2.100
Input #0, yuv4mpegpipe, from 'Input/y4m/sintel.y4m':
  Duration: 00:00:20.83, start: 0.000000, bitrate: 2057307 kb/s
    Stream #0:0: Video: rawvideo (I420 / 0x30323449), yuv420p(progressive), 4096x1744, SAR 1:1 DAR 256:109, 24 fps, 24 tbr, 24 tbn, 24 tbc
[libx264 @ 0x3d87120] using SAR=1/1
[libx264 @ 0x3d87120] using cpu capabilities: MMX2 SSE2Fast SSSE3 SSE4.2 AVX FMA3 AVX2 LZCNT BMI2
[libx264 @ 0x3d87120] profile High, level 5.1
[libx264 @ 0x3d87120] 264 - core 148 - H.264/MPEG-4 AVC codec - Copyleft 2003-2016 - http://www.videolan.org/x264.html - options: cabac=1 ref=5 deblock=1:0:0 analyse=0x3:0x113 me=hex subme=8 psy=1 psy_rd=1.00:0.00 mixed_ref=1 me_range=16 chroma_me=1 trellis=2 8x8dct=1 cqm=0 deadzone=21,11 fast_pskip=1 chroma_qp_offset=-2 threads=6 lookahead_threads=1 sliced_threads=0 nr=0 decimate=1 interlaced=0 bluray_compat=0 constrained_intra=0 bframes=3 b_pyramid=2 b_adapt=1 b_bias=0 direct=3 weightb=1 open_gop=0 weightp=2 keyint=250 keyint_min=24 scenecut=40 intra_refresh=0 rc_lookahead=50 rc=abr mbtree=1 bitrate=4500 ratetol=1.0 qcomp=0.60 qpmin=0 qpmax=69 qpstep=4 ip_ratio=1.40 aq=1:1.00
Output #0, matroska, to 'Output/x264/encoded/sintelslow4500k.mkv':
  Metadata:
    encoder         : Lavf57.57.100
    Stream #0:0: Video: h264 (libx264) (H264 / 0x34363248), yuv420p, 4096x1744 [SAR 1:1 DAR 256:109], q=-1--1, 4500 kb/s, 24 fps, 1k tbn, 24 tbc
    Metadata:
      encoder         : Lavc57.66.101 libx264
    Side data:
      cpb: bitrate max/min/avg: 0/0/4500000 buffer size: 0 vbv_delay: -1
Stream mapping:
  Stream #0:0 -> #0:0 (rawvideo (native) -> h264 (libx264))
Press [q] to stop, [?] for help
frame=    9 fps=0.0 q=0.0 size=       0kB time=00:00:00.00 bitrate=N/A speed=   0x    frame=   18 fps= 17 q=0.0 size=       0kB time=00:00:00.00 bitrate=N/A speed=   0x    frame=   25 fps= 15 q=0.0 size=       0kB time=00:00:00.00 bitrate=N/A speed=   0x    frame=   34 fps= 15 q=0.0 size=       0kB time=00:00:00.00 bitrate=N/A speed=   0x    frame=   43 fps= 16 q=0.0 size=       0kB time=00:00:00.00 bitrate=N/A speed=   0x    frame=   52 fps= 16 q=0.0 size=       0kB time=00:00:00.00 bitrate=N/A speed=   0x    frame=   57 fps=9.1 q=0.0 size=       0kB time=00:00:00.00 bitrate=N/A speed=   0x    frame=   63 fps=8.7 q=32.0 size=       1kB time=00:00:00.00 bitrate=5872.0kbits/s speed=0.000138x    frame=   65 fps=8.4 q=35.0 size=       1kB time=00:00:00.08 bitrate=  69.9kbits/s speed=0.0108x    frame=   67 fps=8.0 q=49.0 size=       1kB time=00:00:00.16 bitrate=  35.0kbits/s speed=0.02x    frame=   71 fps=7.9 q=50.0 size=       1kB time=00:00:00.33 bitrate=  17.6kbits/s speed=0.0371x    frame=   76 fps=7.7 q=49.0 size=       1kB time=00:00:00.54 bitrate=  10.8kbits/s speed=0.055x    frame=   82 fps=7.8 q=49.0 size=       1kB time=00:00:00.79 bitrate=   7.4kbits/s speed=0.075x    frame=   86 fps=7.8 q=49.0 size=       1kB time=00:00:00.95 bitrate=   6.1kbits/s speed=0.0866x    frame=   91 fps=7.8 q=48.0 size=       1kB time=00:00:01.16 bitrate=   5.0kbits/s speed=0.101x    frame=   94 fps=7.8 q=48.0 size=       1kB time=00:00:01.29 bitrate=   4.5kbits/s speed=0.107x    frame=   97 fps=7.7 q=47.0 size=       1kB time=00:00:01.41 bitrate=   4.1kbits/s speed=0.112x    frame=  100 fps=7.6 q=47.0 size=       1kB time=00:00:01.54 bitrate=   3.8kbits/s speed=0.117x    frame=  106 fps=7.7 q=47.0 size=       1kB time=00:00:01.79 bitrate=   3.3kbits/s speed=0.13x    frame=  110 fps=7.6 q=46.0 size=       1kB time=00:00:01.95 bitrate=   3.0kbits/s speed=0.136x    frame=  114 fps=7.6 q=46.0 size=       1kB time=00:00:02.12 bitrate=   2.8kbits/s speed=0.141x    frame=  117 fps=7.5 q=46.0 size=       1kB time=00:00:02.25 bitrate=   2.6kbits/s speed=0.144x    frame=  121 fps=7.4 q=46.0 size=       1kB time=00:00:02.41 bitrate=   2.4kbits/s speed=0.149x    frame=  125 fps=7.4 q=46.0 size=       1kB time=00:00:02.58 bitrate=   2.3kbits/s speed=0.153x    frame=  127 fps=7.3 q=46.0 size=       1kB time=00:00:02.66 bitrate=   2.2kbits/s speed=0.153x    frame=  131 fps=7.3 q=46.0 size=       1kB time=00:00:02.83 bitrate=   2.1kbits/s speed=0.157x    frame=  134 fps=7.1 q=46.0 size=       1kB time=00:00:02.95 bitrate=   2.0kbits/s speed=0.158x    frame=  138 fps=7.1 q=46.0 size=       1kB time=00:00:03.12 bitrate=   1.9kbits/s speed=0.162x    frame=  141 fps=7.0 q=46.0 size=       1kB time=00:00:03.25 bitrate=   1.8kbits/s speed=0.162x    frame=  144 fps=7.0 q=46.0 size=       1kB time=00:00:03.37 bitrate=   1.7kbits/s speed=0.164x    frame=  147 fps=7.0 q=45.0 size=       1kB time=00:00:03.50 bitrate=   1.7kbits/s speed=0.166x    frame=  150 fps=6.9 q=45.0 size=       1kB time=00:00:03.62 bitrate=   1.6kbits/s speed=0.167x    frame=  153 fps=6.9 q=45.0 size=       1kB time=00:00:03.75 bitrate=   1.6kbits/s speed=0.169x    frame=  160 fps=7.0 q=45.0 size=    2527kB time=00:00:04.04 bitrate=5119.3kbits/s speed=0.177x    frame=  163 fps=6.9 q=45.0 size=    2527kB time=00:00:04.16 bitrate=4965.8kbits/s speed=0.177x    frame=  170 fps=7.0 q=45.0 size=    2527kB time=00:00:04.45 bitrate=4641.7kbits/s speed=0.184x    frame=  174 fps=7.0 q=45.0 size=    2527kB time=00:00:04.62 bitrate=4474.2kbits/s speed=0.186x    frame=  180 fps=7.1 q=44.0 size=    2527kB time=00:00:04.87 bitrate=4244.8kbits/s speed=0.192x    frame=  182 fps=7.0 q=44.0 size=    2527kB time=00:00:04.95 bitrate=4173.7kbits/s speed=0.191x    frame=  187 fps=7.0 q=44.0 size=    2527kB time=00:00:05.16 bitrate=4004.9kbits/s speed=0.194x    frame=  190 fps=7.0 q=44.0 size=    2527kB time=00:00:05.29 bitrate=3910.3kbits/s speed=0.195x    frame=  194 fps=7.0 q=44.0 size=    2527kB time=00:00:05.45 bitrate=3791.4kbits/s speed=0.196x    frame=  197 fps=7.0 q=44.0 size=    2527kB time=00:00:05.58 bitrate=3706.6kbits/s speed=0.197x    frame=  202 fps=7.0 q=44.0 size=    2527kB time=00:00:05.79 bitrate=3572.8kbits/s speed=0.201x    frame=  205 fps=7.0 q=44.0 size=    2527kB time=00:00:05.91 bitrate=3497.4kbits/s speed=0.202x    frame=  209 fps=7.0 q=44.0 size=    2527kB time=00:00:06.08 bitrate=3402.0kbits/s speed=0.203x    frame=  214 fps=7.0 q=44.0 size=    2527kB time=00:00:06.29 bitrate=3289.0kbits/s speed=0.206x    frame=  222 fps=7.1 q=44.0 size=    3733kB time=00:00:06.62 bitrate=4614.9kbits/s speed=0.212x    frame=  224 fps=7.0 q=44.0 size=    3733kB time=00:00:06.70 bitrate=4557.8kbits/s speed=0.211x    frame=  229 fps=7.1 q=44.0 size=    3733kB time=00:00:06.91 bitrate=4420.1kbits/s speed=0.213x    frame=  232 fps=7.0 q=44.0 size=    3733kB time=00:00:07.04 bitrate=4341.6kbits/s speed=0.213x    frame=  236 fps=7.0 q=44.0 size=    3733kB time=00:00:07.20 bitrate=4241.6kbits/s speed=0.215x    frame=  240 fps=7.0 q=44.0 size=    3733kB time=00:00:07.37 bitrate=4145.6kbits/s speed=0.216x    frame=  243 fps=7.0 q=44.0 size=    3733kB time=00:00:07.50 bitrate=4076.5kbits/s speed=0.217x    frame=  250 fps=7.1 q=43.0 size=    4238kB time=00:00:07.79 bitrate=4454.6kbits/s speed=0.221x    frame=  256 fps=7.1 q=43.0 size=    4238kB time=00:00:08.04 bitrate=4316.1kbits/s speed=0.225x    frame=  258 fps=7.1 q=43.0 size=    4238kB time=00:00:08.12 bitrate=4272.0kbits/s speed=0.224x    frame=  262 fps=7.1 q=43.0 size=    4238kB time=00:00:08.29 bitrate=4186.0kbits/s speed=0.225x    frame=  266 fps=7.1 q=43.0 size=    4238kB time=00:00:08.45 bitrate=4103.9kbits/s speed=0.226x    frame=  271 fps=7.1 q=43.0 size=    4238kB time=00:00:08.66 bitrate=4004.9kbits/s speed=0.228x    frame=  276 fps=7.2 q=43.0 size=    4238kB time=00:00:08.87 bitrate=3911.1kbits/s speed=0.23x    frame=  281 fps=7.2 q=43.0 size=    4238kB time=00:00:09.08 bitrate=3821.5kbits/s speed=0.232x    frame=  286 fps=7.2 q=43.0 size=    4238kB time=00:00:09.29 bitrate=3735.6kbits/s speed=0.234x    frame=  290 fps=7.2 q=43.0 size=    4238kB time=00:00:09.45 bitrate=3670.0kbits/s speed=0.235x    frame=  295 fps=7.2 q=42.0 size=    4238kB time=00:00:09.66 bitrate=3590.7kbits/s speed=0.237x    frame=  301 fps=7.2 q=42.0 size=    4238kB time=00:00:09.91 bitrate=3500.2kbits/s speed=0.239x    frame=  307 fps=7.3 q=42.0 size=    4238kB time=00:00:10.16 bitrate=3414.1kbits/s speed=0.242x    frame=  313 fps=7.3 q=42.0 size=    4238kB time=00:00:10.41 bitrate=3332.2kbits/s speed=0.244x    frame=  318 fps=7.2 q=42.0 size=    4238kB time=00:00:10.62 bitrate=3266.9kbits/s speed=0.24x    frame=  324 fps=7.2 q=42.0 size=    4238kB time=00:00:10.87 bitrate=3191.9kbits/s speed=0.243x    frame=  331 fps=7.3 q=41.0 size=    5573kB time=00:00:11.16 bitrate=4087.9kbits/s speed=0.246x    frame=  336 fps=7.3 q=41.0 size=    5573kB time=00:00:11.37 bitrate=4013.1kbits/s speed=0.247x    frame=  342 fps=7.3 q=41.0 size=    5573kB time=00:00:11.62 bitrate=3926.8kbits/s speed=0.25x    frame=  348 fps=7.4 q=41.0 size=    5573kB time=00:00:11.87 bitrate=3844.1kbits/s speed=0.251x    frame=  356 fps=7.4 q=41.0 size=    5573kB time=00:00:12.20 bitrate=3739.3kbits/s speed=0.255x    frame=  364 fps=7.5 q=40.0 size=    5573kB time=00:00:12.54 bitrate=3639.7kbits/s speed=0.258x    frame=  372 fps=7.5 q=40.0 size=    5573kB time=00:00:12.87 bitrate=3545.6kbits/s speed=0.261x    frame=  380 fps=7.6 q=40.0 size=    5573kB time=00:00:13.20 bitrate=3456.2kbits/s speed=0.265x    frame=  386 fps=7.7 q=39.0 size=    5573kB time=00:00:13.45 bitrate=3392.0kbits/s speed=0.267x    frame=  392 fps=7.7 q=39.0 size=    5573kB time=00:00:13.70 bitrate=3330.2kbits/s speed=0.269x    frame=  397 fps=7.7 q=39.0 size=    5573kB time=00:00:13.91 bitrate=3280.1kbits/s speed=0.271x    frame=  404 fps=7.8 q=39.0 size=    5573kB time=00:00:14.20 bitrate=3213.0kbits/s speed=0.274x    frame=  410 fps=7.8 q=38.0 size=    5573kB time=00:00:14.45 bitrate=3157.4kbits/s speed=0.276x    frame=  416 fps=7.9 q=38.0 size=    5573kB time=00:00:14.70 bitrate=3103.8kbits/s speed=0.278x    frame=  425 fps=7.9 q=38.0 size=    6846kB time=00:00:15.08 bitrate=3717.8kbits/s speed=0.282x    frame=  428 fps=7.9 q=38.0 size=    6846kB time=00:00:15.20 bitrate=3687.2kbits/s speed=0.281x    frame=  433 fps=7.9 q=38.0 size=    6846kB time=00:00:15.41 bitrate=3637.2kbits/s speed=0.282x    frame=  437 fps=7.9 q=38.0 size=    6846kB time=00:00:15.58 bitrate=3598.5kbits/s speed=0.283x    frame=  444 fps=7.9 q=37.0 size=    6846kB time=00:00:15.87 bitrate=3532.3kbits/s speed=0.284x    frame=  451 fps=8.0 q=37.0 size=    6846kB time=00:00:16.16 bitrate=3468.5kbits/s speed=0.286x    frame=  453 fps=8.0 q=37.0 size=    6846kB time=00:00:16.25 bitrate=3450.8kbits/s speed=0.285x    frame=  459 fps=8.0 q=37.0 size=    6846kB time=00:00:16.50 bitrate=3398.5kbits/s speed=0.287x    frame=  461 fps=7.9 q=37.0 size=    6846kB time=00:00:16.58 bitrate=3381.5kbits/s speed=0.285x    frame=  467 fps=7.9 q=37.0 size=    6846kB time=00:00:16.83 bitrate=3331.3kbits/s speed=0.285x    frame=  475 fps=8.0 q=37.0 size=    6846kB time=00:00:17.16 bitrate=3266.5kbits/s speed=0.288x    frame=  484 fps=8.0 q=37.0 size=    7992kB time=00:00:17.54 bitrate=3732.2kbits/s speed=0.289x    frame=  490 fps=8.0 q=37.0 size=    7992kB time=00:00:17.79 bitrate=3679.7kbits/s speed=0.291x    frame=  496 fps=8.0 q=37.0 size=    7992kB time=00:00:18.04 bitrate=3628.7kbits/s speed=0.292x    frame=  500 fps=7.4 q=-1.0 Lsize=    9593kB time=00:00:20.70 bitrate=3794.8kbits/s speed=0.308x    
video:9589kB audio:0kB subtitle:0kB other streams:0kB global headers:0kB muxing overhead: 0.048520%
bench: utime=231.916s
bench: maxrss=1813364kB
[libx264 @ 0x3d87120] frame I:8     Avg QP:32.75  size: 74097
[libx264 @ 0x3d87120] frame P:269   Avg QP:37.84  size: 24251
[libx264 @ 0x3d87120] frame B:223   Avg QP:36.98  size: 12115
[libx264 @ 0x3d87120] consecutive B-frames: 37.0%  8.4%  6.6% 48.0%
[libx264 @ 0x3d87120] mb I  I16..4: 41.8% 56.9%  1.3%
[libx264 @ 0x3d87120] mb P  I16..4: 20.1% 18.8%  0.1%  P16..4: 14.4%  0.9%  0.5%  0.0%  0.0%    skip:45.2%
[libx264 @ 0x3d87120] mb B  I16..4:  0.9%  1.1%  0.0%  B16..8: 24.2%  0.9%  0.1%  direct: 0.3%  skip:72.4%  L0:38.7% L1:60.3% BI: 1.0%
[libx264 @ 0x3d87120] final ratefactor: 34.70
[libx264 @ 0x3d87120] 8x8 transform intra:49.1% inter:91.7%
[libx264 @ 0x3d87120] direct mvs  spatial:98.7% temporal:1.3%
[libx264 @ 0x3d87120] coded y,uvDC,uvAC intra: 4.9% 16.7% 0.4% inter: 1.5% 1.9% 0.0%
[libx264 @ 0x3d87120] i16 v,h,dc,p: 38% 33%  5% 24%
[libx264 @ 0x3d87120] i8 v,h,dc,ddl,ddr,vr,hd,vl,hu: 11%  7% 70%  2%  2%  2%  2%  2%  2%
[libx264 @ 0x3d87120] i4 v,h,dc,ddl,ddr,vr,hd,vl,hu: 13% 14%  9%  8% 14% 10% 15%  6% 11%
[libx264 @ 0x3d87120] i8c dc,h,v,p: 89%  7%  3%  1%
[libx264 @ 0x3d87120] Weighted P-Frames: Y:1.1% UV:0.7%
[libx264 @ 0x3d87120] ref P L0: 62.9% 11.3% 14.6%  5.1%  4.4%  1.8%
[libx264 @ 0x3d87120] ref B L0: 87.9%  8.2%  3.3%  0.6%
[libx264 @ 0x3d87120] ref B L1: 97.7%  2.3%
[libx264 @ 0x3d87120] kb/s:3770.10
